<!--?xml version="1.0" standalone="no"?-->
              <svg id="sw-js-blob-svg" viewBox="0 0 100 100" xmlns="http://www.w3.org/2000/svg" version="1.1">
                    <defs> 
                        <linearGradient id="sw-gradient" x1="0" x2="1" y1="1" y2="0">
                            <stop id="stop1" stop-color="rgba(48.978, 34, 248, 1)" offset="0%"></stop>
                            <stop id="stop2" stop-color="rgba(187, 207, 246, 1)" offset="100%"></stop>
                        </linearGradient>
                    </defs>
                <path fill="url(#sw-gradient)" d="M18,-34.9C20.4,-29.9,17.1,-19,20,-12.2C22.8,-5.4,31.7,-2.7,33.4,1C35.2,4.7,29.8,9.4,24.9,12.7C20.1,16.1,15.9,18.2,11.8,18.7C7.8,19.3,3.9,18.3,-1,20.1C-6,21.9,-11.9,26.5,-19.1,27.7C-26.3,28.9,-34.7,26.9,-40,21.7C-45.3,16.6,-47.5,8.3,-44.9,1.5C-42.4,-5.3,-35,-10.6,-28.4,-13.6C-21.9,-16.6,-16.2,-17.4,-11.6,-21C-7,-24.7,-3.5,-31.3,2.2,-35.1C7.9,-38.9,15.7,-39.9,18,-34.9Z" width="100%" height="100%" transform="translate(50 50)" stroke-width="0" style="transition: all 0.3s ease 0s;" stroke="url(#sw-gradient)"></path>
              </svg>