<!--?xml version="1.0" standalone="no"?-->
              <svg id="sw-js-blob-svg" viewBox="0 0 100 100" xmlns="http://www.w3.org/2000/svg" version="1.1">
                    <defs> 
                        <linearGradient id="sw-gradient" x1="0" x2="1" y1="1" y2="0">
                            <stop id="stop1" stop-color="rgba(33.551, 171.052, 247.909, 1)" offset="0%"></stop>
                            <stop id="stop2" stop-color="rgba(187.424, 223.118, 245.632, 1)" offset="100%"></stop>
                        </linearGradient>
                    </defs>
                <path fill="url(#sw-gradient)" d="M17.2,-30.2C22.5,-26.6,27.2,-22.5,32.6,-17.4C37.9,-12.3,43.9,-6.1,44.6,0.5C45.4,7.1,41.1,14.1,36.6,20.8C32.2,27.5,27.7,33.8,21.5,36.2C15.4,38.5,7.7,37,0.7,35.8C-6.3,34.6,-12.6,33.7,-18.3,31C-23.9,28.4,-28.9,24,-31.8,18.5C-34.6,13.1,-35.2,6.5,-36.3,-0.6C-37.4,-7.8,-39,-15.6,-36.9,-22.3C-34.8,-29.1,-29,-34.7,-22.3,-37.4C-15.5,-40.2,-7.8,-40.1,-0.9,-38.5C5.9,-36.9,11.8,-33.8,17.2,-30.2Z" width="100%" height="100%" transform="translate(50 50)" stroke-width="0" style="transition: all 0.3s ease 0s;" stroke="url(#sw-gradient)"></path>
              </svg>